<svg width="283" height="283" viewBox="0 0 283 283" fill="none" xmlns="http://www.w3.org/2000/svg">
<path d="M53.0625 88.4375H29.479C26.2245 88.4375 23.583 91.079 23.583 94.3335C23.583 97.588 26.2245 100.23 29.479 100.23H53.0625C56.317 100.23 58.9586 97.588 58.9586 94.3335C58.9586 91.079 56.317 88.4375 53.0625 88.4375Z" fill="white"/>
<path d="M241.458 104.345C240.338 100.819 217.839 53.1454 209.42 48.0276C200.659 42.6976 148.245 41.271 141.5 41.271C134.755 41.271 82.3414 42.6976 73.58 48.0276C65.1607 53.1332 42.6622 100.819 41.5418 104.345C40.5513 107.446 42.2847 110.759 45.3861 111.75C48.5229 112.729 51.8127 111.007 52.7911 107.905C54.6422 102.045 75.0889 62.1417 79.5816 58.1797C84.57 55.798 121.301 53.0625 141.5 53.0625C161.699 53.0625 198.43 55.798 203.005 57.8973C207.899 62.1423 228.358 102.045 230.209 107.906C231.011 110.418 233.333 112.021 235.833 112.021C236.423 112.021 237.025 111.939 237.626 111.75C240.715 110.759 242.449 107.445 241.458 104.345Z" fill="white"/>
<path d="M53.0625 206.354C50.3032 206.354 48.0862 208.288 47.4495 210.847L11.7915 201.932V200.458C11.7915 197.203 9.14996 194.562 5.89546 194.562C2.64096 194.562 0 197.204 0 200.459V224.042C0 233.794 7.93561 241.73 17.6875 241.73H41.271C51.0229 241.73 58.9585 233.794 58.9585 224.042V212.25C58.9585 208.996 56.317 206.354 53.0625 206.354Z" fill="white"/>
<path d="M277.104 194.562C273.849 194.562 271.208 197.204 271.208 200.459V201.933L235.55 210.847C234.913 208.289 232.696 206.355 229.937 206.355C226.682 206.355 224.041 208.996 224.041 212.251V224.042C224.041 233.794 231.977 241.73 241.728 241.73H265.312C275.064 241.73 283 233.794 283 224.042V200.459C283 197.204 280.358 194.562 277.104 194.562Z" fill="white"/>
<path d="M253.521 88.4375H229.938C226.683 88.4375 224.042 91.079 224.042 94.3335C224.042 97.588 226.683 100.23 229.938 100.23H253.521C256.776 100.23 259.417 97.588 259.417 94.3335C259.417 91.079 256.776 88.4375 253.521 88.4375Z" fill="white"/>
<path d="M282.54 144.059L266.456 147.278C264.475 147.585 224.879 153.291 214.844 153.291C213.405 154.435 212.108 162.005 212.262 169.093C248.203 167.395 276.184 165.142 276.633 165.107L282.988 164.246C282.976 156.428 282.859 149.754 282.54 144.059Z" fill="white"/>
<path d="M272.871 118.141C270.23 117.374 268.85 115.452 266.232 111.537L264.216 108.59C260.69 103.673 253.875 103.46 247.283 103.272C245.302 103.213 242.165 103.119 240.679 102.777C240.172 102.034 239.488 101.409 238.663 100.961C227.662 94.9111 185.978 88.4375 141.5 88.4375C97.022 88.4375 55.3381 94.9111 44.3365 100.96C43.5113 101.409 42.827 102.033 42.3085 102.788C40.8228 103.13 37.686 103.224 35.705 103.283C29.1252 103.472 22.3095 103.673 18.7841 108.59L16.7678 111.55C14.15 115.465 12.7704 117.386 10.1289 118.153C5.50635 119.509 2.97151 124.249 1.56812 132.869L13.2181 135.781C13.4066 135.781 51.8714 141.501 64.854 141.501C69.3112 141.501 73.2379 143.199 76.2094 146.406C82.4591 153.163 82.7537 165.002 82.6006 169.612C101.573 170.402 122.055 170.98 141.5 170.98C160.968 170.98 181.462 170.402 200.459 169.612C200.329 164.4 200.624 151.347 206.461 145.18C208.748 142.774 211.637 141.501 214.845 141.501C222.474 141.501 253.262 137.291 264.476 135.664L281.35 132.279C279.934 124.013 277.399 119.461 272.871 118.141ZM182.771 159.188H100.229C96.9745 159.188 94.333 156.546 94.333 153.291C94.333 150.037 96.9745 147.395 100.229 147.395H182.77C186.025 147.395 188.666 150.037 188.666 153.291C188.666 156.546 186.026 159.188 182.771 159.188Z" fill="white"/>
<path d="M277.882 176.828C276.856 176.91 203.901 182.771 141.5 182.771C79.0984 182.771 6.14358 176.91 5.42392 176.863L0.306152 176.333C0.942902 189.127 2.9123 208.312 9.02001 211.566C15.3875 214.951 89.0499 218.146 141.499 218.146C193.949 218.146 267.611 214.951 273.967 211.555C280.099 208.289 282.068 188.974 282.693 176.18L277.882 176.828Z" fill="white"/>
<path d="M67.5425 154.4C66.8112 153.61 66.033 153.292 64.854 153.292C50.94 153.292 12.546 147.573 10.9187 147.337L0.41234 144.72C0.117732 150.308 0.0116074 156.853 0 164.435L6.49739 165.107C6.87491 165.142 34.8444 167.382 70.7854 169.093C70.9031 164.836 70.3371 157.419 67.5425 154.4Z" fill="white"/>
</svg>
